<?xml version="1.0" encoding="UTF-8"?>
<svg version="1.1" xmlns="http://www.w3.org/2000/svg" width="512" height="512">
<path d="M0 0 C3.92869438 1.0185504 4.01261306 0.58709776 7.375 -1.125 C11.73276765 -1.75035941 16.32735342 -2.13872641 20.35546875 -0.14453125 C23.94419632 2.73531186 26.0620583 5.74910914 26.72940063 10.28253174 C26.77825409 11.17832947 26.82710754 12.0741272 26.87744141 12.99707031 C26.9673082 14.53213226 26.9673082 14.53213226 27.05899048 16.09820557 C27.11428925 17.20532898 27.16958801 18.31245239 27.2265625 19.453125 C27.29032074 20.61132751 27.35407898 21.76953003 27.41976929 22.96282959 C27.55333504 25.42730253 27.68249455 27.89201757 27.80761719 30.35693359 C27.99576514 34.0420548 28.19978361 37.72602156 28.40625 41.41015625 C28.73818757 47.44263112 28.98310426 53.47572485 29.21075439 59.51290894 C29.36006222 62.56922516 29.61272577 65.59350933 29.90380859 68.63891602 C31.36349065 88.06807826 24.0443243 105.67135495 17.67211914 123.68988037 C16.135805 128.05934572 14.64227612 132.4433705 13.14453125 136.82617188 C11.1877571 142.53625827 9.22184653 148.24287829 7.22385406 153.93868923 C6.70785746 155.41012576 6.194107 156.8823521 5.68273163 158.35540104 C4.38370792 162.08174447 3.03551282 165.77897146 1.60379028 169.45654297 C1.31842218 170.20886483 1.03305408 170.9611867 0.73903847 171.73630619 C0.2003549 173.15253788 -0.35379046 174.56303772 -0.92707253 175.96562099 C-3.42949721 182.63212355 -2.16488471 188.56891293 -0.03027344 195.21972656 C1.19090227 199.19797449 2.20218269 203.19189084 3.15252686 207.24261475 C3.94046529 210.58268748 4.77998941 213.90894007 5.61962891 217.23632812 C6.04220153 218.92138148 6.45880852 220.60794138 6.86962891 222.29589844 C9.35160179 232.48628748 12.07210779 241.72594228 17.375 250.875 C18.10178955 252.15769775 18.10178955 252.15769775 18.84326172 253.46630859 C20.32509182 256.03747343 21.8437293 258.58300456 23.375 261.125 C24.52669608 263.05559934 25.67771461 264.98660301 26.828125 266.91796875 C27.41529297 267.90200684 28.00246094 268.88604492 28.60742188 269.89990234 C31.47622621 274.72852798 34.30044118 279.58290342 37.125 284.4375 C42.17934555 293.11277266 47.238538 301.78517705 52.31091309 310.44992065 C53.0521537 311.71653131 53.79296955 312.98339066 54.5333252 314.2505188 C56.22344795 317.14291719 57.91993984 320.03057106 59.63232422 322.90991211 C60.66699677 324.67036295 61.67836839 326.44541473 62.63720703 328.24829102 C65.90811954 334.17300292 70.49671692 337.21183431 76.125 340.8125 C78.0940724 342.11279316 80.06280885 343.41359518 82.03125 344.71484375 C83.578125 345.72587158 83.578125 345.72587158 85.15625 346.75732422 C90.69000619 350.39808584 96.15311805 354.1422719 101.625 357.875 C103.15785645 358.91515259 103.15785645 358.91515259 104.72167969 359.97631836 C105.70555664 360.6441333 106.68943359 361.31194824 107.703125 362 C108.66154297 362.64880127 109.61996094 363.29760254 110.60742188 363.96606445 C112.39335277 365.19790934 114.16203035 366.45533628 115.90820312 367.74291992 C122.05646491 372.25797313 128.32398291 375.31369008 135.375 378.1875 C137.41838978 379.03361096 139.46014795 379.88367657 141.5 380.73828125 C142.38945312 381.10219971 143.27890625 381.46611816 144.1953125 381.84106445 C146.375 382.875 146.375 382.875 148.375 384.875 C148.90338266 386.64069081 149.34909284 388.43154526 149.75 390.23046875 C153.00824481 403.99518109 156.54426503 414.77737138 165.375 425.875 C167.103301 429.331602 166.64434206 433.19059235 166.6875 437 C166.73100586 438.24523437 166.73100586 438.24523437 166.77539062 439.515625 C166.8360735 445.47188213 165.83356281 449.9522759 162.375 454.875 C160.15625 456.93359375 160.15625 456.93359375 157.875 458.3125 C156.74578125 459.02212891 156.74578125 459.02212891 155.59375 459.74609375 C150.53008337 462.32250159 145.38665359 462.69849903 139.875 461.19140625 C133.30225183 458.83421531 129.42257066 455.83442338 126.18896484 449.58154297 C124.96761424 446.94316137 123.79334878 444.28724512 122.625 441.625 C119.37775902 434.52276192 116.22593683 428.61510498 110.60546875 423.07421875 C107.26157555 419.77717519 104.44046018 416.08484545 101.515625 412.41796875 C96.0422055 405.91578609 89.83295328 401.67032089 82.75 397.0625 C75.76480605 392.49458531 68.89766329 387.8417818 62.17480469 382.89526367 C59.21817693 380.7618407 56.21402638 378.71850727 53.18359375 376.69140625 C52.13623047 375.99080078 51.08886719 375.29019531 50.00976562 374.56835938 C47.87734828 373.14718203 45.74191952 371.73051289 43.60351562 370.31835938 C34.02519006 363.89149767 25.58441072 356.79435647 18.25 347.875 C17.74484863 347.28195068 17.23969727 346.68890137 16.71923828 346.07788086 C14.45528798 343.41663868 12.27721052 340.74385732 10.1875 337.94140625 C9.548125 337.11511719 8.90875 336.28882813 8.25 335.4375 C7.73179687 334.71691406 7.21359375 333.99632812 6.6796875 333.25390625 C2.80954459 330.93838007 -1.32136566 332.15328841 -5.625 332.875 C-3.99218058 336.7443666 -2.31288934 340.5918735 -0.625 344.4375 C-0.16738281 345.52353516 0.29023438 346.60957031 0.76171875 347.72851562 C3.44703928 353.77968313 5.91582834 358.01938413 11.1484375 362.09741211 C13.78317477 364.20086847 16.09818281 366.50936774 18.46875 368.90625 C19.79712891 370.24623047 19.79712891 370.24623047 21.15234375 371.61328125 C22.96744792 373.45442708 24.78255208 375.29557292 26.59765625 377.13671875 C31.06812322 381.6462291 35.57826999 385.9932833 40.40039062 390.12304688 C45.04533344 394.24422759 49.31254209 398.77734656 53.6640625 403.203125 C61.33027074 410.94836632 69.12433175 417.62416261 78.1875 423.6875 C79.03248047 424.25919922 79.87746094 424.83089844 80.74804688 425.41992188 C83.94910424 427.58362308 87.16019004 429.73179336 90.375 431.875 C91.39774206 434.94322617 91.4089656 437.422978 91.41259766 440.625 C91.50090552 448.82551067 92.86117126 455.00940676 96.5 462.375 C99.7894819 469.14363148 101.58391031 473.41332212 99.375 480.875 C99.02609829 482.31417634 98.68147046 483.75439191 98.33984375 485.1953125 C93.92816477 503.08069602 93.92816477 503.08069602 86.375 509.375 C81.11172074 511.96615287 75.05816123 511.5936449 69.375 510.875 C61.9733068 507.43849958 58.14757123 501.18152913 55.39453125 493.7734375 C54.86938798 492.39078654 54.34424137 491.00813685 53.8190918 489.62548828 C53.55252777 488.91007874 53.28596375 488.19466919 53.01132202 487.45758057 C48.67853098 475.84708091 44.1072338 464.52942857 38.27075195 453.57568359 C35.375 448.12635528 35.375 448.12635528 35.375 444.875 C34.83359375 444.66230469 34.2921875 444.44960938 33.734375 444.23046875 C30.52176839 442.38481561 28.16947042 439.83538119 25.625 437.1875 C21.61096304 433.0856045 17.54035381 429.17250747 13.16796875 425.44921875 C10.70779825 423.28919977 8.44535076 420.95569726 6.15234375 418.62109375 C4.30906426 416.81022357 2.39677201 415.12178646 0.4375 413.4375 C-2.37076347 411.01882221 -5.02470593 408.51600317 -7.625 405.875 C-10.20509215 403.25459391 -12.83603607 400.77176588 -15.625 398.375 C-19.13641648 395.35737647 -22.37807402 392.14140919 -25.625 388.84375 C-27.56391002 386.93513545 -29.56199551 385.14789448 -31.625 383.375 C-32.95893381 382.20901995 -34.29219947 381.0422753 -35.625 379.875 C-36.26759766 379.33407715 -36.91019531 378.7931543 -37.57226562 378.23583984 C-43.69785888 372.68585692 -46.30968588 366.66686173 -49.125 359 C-49.56585938 357.86046875 -50.00671875 356.7209375 -50.4609375 355.546875 C-53.625 347.27314635 -53.625 347.27314635 -53.625 344.875 C-58.575 344.875 -63.525 344.875 -68.625 344.875 C-71.21168268 333.97990049 -73.79447375 323.08388553 -76.37287045 312.18682194 C-77.57144857 307.12176919 -78.77115498 302.05699043 -79.97387695 296.99291992 C-86.46040531 269.67668754 -92.70611355 242.32003761 -98.625 214.875 C-99.06784433 216.56462146 -99.51066785 218.25424837 -99.95339298 219.94390106 C-100.32843394 221.37444424 -100.7038512 222.80488881 -101.07963467 224.23523712 C-101.85256892 227.17878161 -102.62331543 230.12241171 -103.37283325 233.07202148 C-103.88487233 235.08568086 -104.42445168 237.08968985 -104.97265625 239.09375 C-105.13117065 239.74375977 -105.28968506 240.39376953 -105.45300293 241.06347656 C-107.10457918 246.95428144 -110.40842078 250.55187923 -114.625 254.875 C-115.07782034 255.34333504 -115.53064068 255.81167007 -115.99718285 256.29419708 C-119.96501985 260.39445846 -123.98030145 264.44674114 -128.00390625 268.4921875 C-128.64091902 269.13327579 -129.27793179 269.77436409 -129.93424797 270.4348793 C-133.2968935 273.81824888 -136.66270699 277.19843088 -140.03100586 280.57617188 C-143.50169416 284.05798745 -146.9605332 287.5513378 -150.41696262 291.04730034 C-153.0877884 293.744254 -155.76744596 296.43229969 -158.44956779 299.11801529 C-159.72913627 300.40244763 -161.00533091 301.69025045 -162.27801704 302.98150253 C-164.05568879 304.78351702 -165.84556854 306.57249057 -167.63891602 308.35888672 C-168.15804062 308.89082138 -168.67716522 309.42275604 -169.21202087 309.97080994 C-173.68051266 314.37656322 -177.32433196 315.875 -183.5625 315.875 C-188.34120085 315.13062545 -191.4299941 312.36635427 -194.625 308.875 C-196.66140933 304.80218134 -196.29335954 300.28392639 -195.625 295.875 C-192.46714055 288.81683767 -187.17982414 282.99633589 -182.25 277.1171875 C-178.38814237 272.42736194 -174.86998135 267.47549063 -171.28881836 262.57080078 C-166.00855343 255.35469786 -160.59713681 248.24435361 -155.13061523 241.16845703 C-154.18424194 239.93651611 -154.18424194 239.93651611 -153.21875 238.6796875 C-152.66896484 237.96796387 -152.11917969 237.25624023 -151.55273438 236.52294922 C-150.91658203 235.64912598 -150.28042969 234.77530273 -149.625 233.875 C-149.14563492 233.24035324 -148.66626984 232.60570648 -148.17237854 231.951828 C-144.05433307 226.22201948 -142.14338751 220.9061959 -140.58984375 214.06640625 C-140.34383926 213.0596434 -140.09783478 212.05288055 -139.84437561 211.01560974 C-139.0667785 207.8267125 -138.31259738 204.63296801 -137.5625 201.4375 C-136.80681174 198.24619825 -136.04565605 195.0565912 -135.26991272 191.87010193 C-134.79018955 189.89731739 -134.32178914 187.92172938 -133.86717224 185.94300842 C-131.8965601 177.80005259 -128.97379535 169.44078583 -122.8125 163.5 C-121.90564453 162.59121094 -121.90564453 162.59121094 -120.98046875 161.6640625 C-114.36186944 156.63700034 -106.41421363 154.25714979 -98.625 151.625 C-97.56410156 151.26148438 -96.50320312 150.89796875 -95.41015625 150.5234375 C-92.81676816 149.63561095 -90.2217493 148.7529364 -87.625 147.875 C-88.38425781 147.81586426 -89.14351563 147.75672852 -89.92578125 147.69580078 C-90.91964844 147.61313965 -91.91351563 147.53047852 -92.9375 147.4453125 C-93.92363281 147.36555176 -94.90976563 147.28579102 -95.92578125 147.20361328 C-99.27590085 146.79575682 -101.14645581 146.19863518 -103.625 143.875 C-107.38062848 137.57906807 -107.05132075 131.26635718 -106.96118164 124.07885742 C-106.93768316 122.07809485 -106.94236387 120.07706643 -106.94726562 118.07617188 C-106.88246791 106.28887756 -106.10656258 96.38248678 -98.625 86.875 C-90.59706977 78.98062129 -82.89716344 76.30412288 -71.77148438 76.31445312 C-63.05039827 76.66394679 -56.00536964 80.38221819 -49.625 86.25 C-40.849242 95.90333379 -40.97067818 107.09062885 -41.41943359 119.45556641 C-41.83086119 124.29790311 -43.41935353 128.5818667 -45.625 132.875 C-44.42101562 132.441875 -43.21703125 132.00875 -41.9765625 131.5625 C-40.40110058 130.99983503 -38.82557651 130.43734403 -37.25 129.875 C-36.4559375 129.58882812 -35.661875 129.30265625 -34.84375 129.0078125 C-34.08320313 128.73710937 -33.32265625 128.46640625 -32.5390625 128.1875 C-31.8373291 127.93613281 -31.1355957 127.68476563 -30.41259766 127.42578125 C-28.625 126.875 -28.625 126.875 -26.625 126.875 C-26.45484375 126.18535156 -26.2846875 125.49570313 -26.109375 124.78515625 C-24.04132369 116.7659573 -22.09269218 109.30695619 -16.3203125 103.16015625 C-5.51938415 91.04282963 -0.97243789 77.93954362 -1.625 61.875 C-2.83671875 62.205 -4.0484375 62.535 -5.296875 62.875 C-14.31523666 65.11174405 -21.82962679 63.06392762 -29.890625 58.66796875 C-37.08718488 53.94908163 -41.75527096 47.29431241 -43.625 38.875 C-44.74002557 27.46035682 -43.74855324 18.73648455 -36.375 9.625 C-26.82933137 -0.63608276 -13.54203521 -3.92006282 0 0 Z " fill="#51242D" transform="translate(270.625,1.125)"/>
<path d="M0 0 C0.73650746 2.85283356 1.47299284 5.70567282 2.2094574 8.55851746 C2.69994036 10.45850223 3.1904238 12.35848688 3.68094063 14.25846291 C5.66998006 21.96285855 7.65819036 29.66746674 9.64453125 37.37255859 C10.37625008 40.21062539 11.108029 43.04867669 11.83984375 45.88671875 C12.02091549 46.58897583 12.20198723 47.29123291 12.38854599 48.01477051 C14.60317974 56.60265747 16.82719219 65.18801512 19.06640625 73.76953125 C19.688781 76.16187969 20.31072569 78.55433929 20.93240356 80.9468689 C21.30865075 82.39070409 21.686622 83.83409118 22.06637573 85.27700806 C22.57974415 87.22783106 23.08694851 89.18027318 23.59375 91.1328125 C23.86896484 92.18355957 24.14417969 93.23430664 24.42773438 94.31689453 C25 97 25 97 25 101 C13.2413059 104.55751655 1.39588281 107.25831184 -10.64501953 109.68457031 C-20.63868779 111.6996849 -30.58660154 113.88344521 -40.52124023 116.17163086 C-41.57770752 116.41147705 -42.6341748 116.65132324 -43.72265625 116.8984375 C-45.11109741 117.21820557 -45.11109741 117.21820557 -46.52758789 117.54443359 C-49 118 -49 118 -53 118 C-58.28294219 94.88830756 -63.37936489 71.74770592 -68.16772461 48.52807617 C-68.44222694 47.20084534 -68.44222694 47.20084534 -68.72227478 45.84680176 C-69.06471821 44.18960725 -69.40552468 42.53207332 -69.74440002 40.87414551 C-70.36902673 37.84980784 -71.02238151 34.93285548 -72 32 C-72.03954234 29.66700175 -72.04401732 27.33291811 -72 25 C-55.83280997 19.03597999 -39.64875841 13.117368 -23.44143677 7.26324463 C-21.68893863 6.62946058 -19.93704485 5.99400288 -18.1857605 5.35687256 C-15.71531807 4.45857781 -13.24273998 3.56642655 -10.76953125 2.67578125 C-10.02706146 2.40442856 -9.28459167 2.13307587 -8.5196228 1.85350037 C-5.54517372 0.78859116 -3.1852103 0 0 0 Z " fill="#EE7784" transform="translate(245,139)"/>
<path d="M0 0 C0.27972656 0.4947583 0.55945313 0.9895166 0.84765625 1.49926758 C8.48391114 14.9839484 16.31411479 28.3435985 24.23828125 41.66015625 C27.86170574 47.75259821 31.43873047 53.871031 35 60 C32.02244786 62.97755214 28.26775824 63.49705837 24.30078125 64.56640625 C23.43237106 64.80536118 22.56396088 65.0443161 21.66923523 65.29051208 C19.8283051 65.79545286 17.98646271 66.29707756 16.14379883 66.7956543 C13.33896333 67.55533251 10.53751189 68.32658826 7.73632812 69.09960938 C5.94550294 69.58923874 4.1544929 70.07819259 2.36328125 70.56640625 C1.11445915 70.91017052 1.11445915 70.91017052 -0.15959167 71.26087952 C-4.768324 72.50151554 -9.25966588 73.43420922 -14 74 C-14.43035641 69.67697834 -14.85750445 65.35365506 -15.28173828 61.0300293 C-15.42637348 59.56054211 -15.57187076 58.09113949 -15.71826172 56.62182617 C-15.92905092 54.50461355 -16.13669392 52.38711182 -16.34375 50.26953125 C-16.46943359 48.99698486 -16.59511719 47.72443848 -16.72460938 46.41333008 C-17 43 -17 43 -17 38 C-20.3 38 -23.6 38 -27 38 C-26.67 38.99 -26.34 39.98 -26 41 C-25.5202389 44.79984985 -25.24922823 48.62056098 -24.9375 52.4375 C-24.84662109 53.46810547 -24.75574219 54.49871094 -24.66210938 55.56054688 C-24.06639825 62.72251747 -23.89153715 69.81493903 -24 77 C-54.21195139 86.6868806 -54.21195139 86.6868806 -64 86 C-67.47740169 74.44103906 -70.29174796 62.75960726 -73 51 C-73.14518066 50.37095764 -73.29036133 49.74191528 -73.43994141 49.09381104 C-74.4091389 44.89315178 -75.37287373 40.69128316 -76.33065796 36.48800659 C-76.65087653 35.08376225 -76.97201745 33.6797279 -77.2940979 32.27590942 C-77.74754387 30.29667227 -78.19613465 28.3163247 -78.64453125 26.3359375 C-78.90596924 25.18657715 -79.16740723 24.0372168 -79.43676758 22.85302734 C-80 20 -80 20 -80 17 C-79.06244873 16.79955078 -78.12489746 16.59910156 -77.15893555 16.39257812 C-72.66781319 15.43137599 -68.17748884 14.46648233 -63.6875 13.5 C-62.86587372 13.32314667 -62.04424744 13.14629333 -61.19772339 12.96408081 C-47.13776852 9.93314639 -33.10918436 6.77766364 -19.09838867 3.52734375 C-18.04387009 3.28364296 -18.04387009 3.28364296 -16.9680481 3.03501892 C-15.08062259 2.59859671 -13.19373177 2.15986385 -11.30688477 1.72094727 C-3.41313918 0 -3.41313918 0 0 0 Z " fill="#F17885" transform="translate(275,250)"/>
<path d="M0 0 C0.70759662 2.78786993 1.39104922 5.57839641 2.0625 8.375 C2.26166016 9.14972656 2.46082031 9.92445313 2.66601562 10.72265625 C5.15396399 21.28552475 2.57192454 30.49651999 -0.3125 40.75 C-0.78562622 42.4676355 -0.78562622 42.4676355 -1.26831055 44.2199707 C-2.16970361 47.48262923 -3.08220224 50.74192321 -4 54 C-4.226875 54.80808105 -4.45375 55.61616211 -4.6875 56.44873047 C-5.77265559 60.30478089 -6.88061496 64.15377177 -8 68 C-8.226875 69.13179688 -8.45375 70.26359375 -8.6875 71.4296875 C-10.41121218 76.11859503 -13.07362408 78.59438273 -16.6875 81.9375 C-20.32043806 85.38313298 -23.88846474 88.79780118 -27.13745117 92.61328125 C-33.97312233 100.48045995 -41.43547393 107.77827635 -48.77050781 115.17553711 C-50.68535583 117.1083499 -52.59127688 119.04937762 -54.49023438 120.99780273 C-57.23968075 123.81872102 -60.01324119 126.61517514 -62.7890625 129.41015625 C-64.06265121 130.72549095 -64.06265121 130.72549095 -65.36196899 132.06739807 C-66.15984833 132.8625029 -66.95772766 133.65760773 -67.77978516 134.47680664 C-68.82400131 135.53648399 -68.82400131 135.53648399 -69.88931274 136.61756897 C-72 138 -72 138 -74.76376343 137.72019958 C-75.5017215 137.48253372 -76.23967957 137.24486786 -77 137 C-77.87890625 135.0078125 -77.87890625 135.0078125 -78 132 C-76.33093026 129.01888078 -74.12503207 126.48887703 -71.9375 123.875 C-70.62921326 122.25575958 -69.32329103 120.63460635 -68.01953125 119.01171875 C-67.01140381 117.76527588 -67.01140381 117.76527588 -65.98291016 116.49365234 C-62.918125 112.63946426 -60.02079666 108.66932487 -57.125 104.6875 C-51.38795794 96.83479099 -45.5267823 89.08418968 -39.59228516 81.37963867 C-37.71314129 78.93066965 -35.85085059 76.47041498 -34 74 C-33.35546875 73.14148438 -32.7109375 72.28296875 -32.046875 71.3984375 C-28.65631277 66.7443117 -26.14960348 62.82717347 -24.875 57.125 C-24.57207031 55.84625 -24.26914063 54.5675 -23.95703125 53.25 C-23.80443848 52.56808594 -23.6518457 51.88617188 -23.49462891 51.18359375 C-22.5806467 47.14871869 -21.56549106 43.13850197 -20.5625 39.125 C-20.35294678 38.28388672 -20.14339355 37.44277344 -19.92749023 36.57617188 C-18.50472478 30.90469687 -17.02987599 25.25135383 -15.4375 19.625 C-15.25195557 18.94195801 -15.06641113 18.25891602 -14.87524414 17.55517578 C-13.10697341 11.45879387 -10.26150057 6.69349607 -5.375 2.625 C-4.78460938 2.12226563 -4.19421875 1.61953125 -3.5859375 1.1015625 C-2 0 -2 0 0 0 Z " fill="#DE9C74" transform="translate(163,168)"/>
<path d="M0 0 C0.32162109 0.78125244 0.64324219 1.56250488 0.97460938 2.36743164 C2.19518052 5.30285302 3.43489026 8.22924521 4.6875 11.15112305 C5.22247235 12.40962621 5.75002921 13.6713116 6.26953125 14.9362793 C9.16184952 21.96405647 11.68724542 27.60897479 17.79101562 32.27514648 C20.44062643 34.34405678 22.73184418 36.63962221 25.09375 39.03125 C25.97933594 39.92457031 26.86492187 40.81789063 27.77734375 41.73828125 C29.59244792 43.57942708 31.40755208 45.42057292 33.22265625 47.26171875 C37.86354638 51.94314067 42.52156679 56.45800259 47.61914062 60.64257812 C48.07482422 61.09052734 48.53050781 61.53847656 49 62 C49 62.66 49 63.32 49 64 C47.59472656 65.12915039 47.59472656 65.12915039 45.640625 66.34765625 C44.58488281 67.00797852 44.58488281 67.00797852 43.5078125 67.68164062 C42.76273437 68.13732422 42.01765625 68.59300781 41.25 69.0625 C40.52039063 69.52205078 39.79078125 69.98160156 39.0390625 70.45507812 C32.20698613 74.6847545 32.20698613 74.6847545 29 75 C27.31518555 73.95874023 27.31518555 73.95874023 25.63671875 72.30859375 C25.00507813 71.70080078 24.3734375 71.09300781 23.72265625 70.46679688 C23.05105469 69.79712891 22.37945312 69.12746094 21.6875 68.4375 C20.24387009 67.03997141 18.79985095 65.64284481 17.35546875 64.24609375 C16.62634277 63.53308105 15.8972168 62.82006836 15.14599609 62.08544922 C12.57418652 59.58620037 9.95988429 57.13691119 7.32983398 54.69921875 C6.1010399 53.55813712 4.87794761 52.41088708 3.66040039 51.2578125 C0.46172173 48.2346172 -2.78215449 45.32618907 -6.1796875 42.52734375 C-16.90629092 33.47428911 -23.16159849 23.61781013 -27 10 C-27 9.01 -27 8.02 -27 7 C-23.06442471 5.82677153 -19.12624273 4.66254629 -15.1875 3.5 C-14.06794922 3.16613281 -12.94839844 2.83226562 -11.79492188 2.48828125 C-10.18520508 2.01455078 -10.18520508 2.01455078 -8.54296875 1.53125 C-7.0583313 1.09135742 -7.0583313 1.09135742 -5.54370117 0.64257812 C-3 0 -3 0 0 0 Z " fill="#DF9D75" transform="translate(255,337)"/>
<path d="M0 0 C4.70588235 0.70588235 4.70588235 0.70588235 6 2 C6.18194362 3.65654656 6.29862925 5.32031422 6.38891602 6.984375 C6.44890274 8.05059082 6.50888947 9.11680664 6.57069397 10.21533203 C6.63115402 11.38177246 6.69161407 12.54821289 6.75390625 13.75 C6.85166603 15.55186768 6.85166603 15.55186768 6.95140076 17.39013672 C7.08897706 19.94909522 7.22415955 22.50818333 7.35717773 25.06738281 C7.55874798 28.92813615 7.76997875 32.7882691 7.98242188 36.6484375 C8.3126794 42.72747154 8.59183796 48.80748008 8.8494873 54.88998413 C8.97668821 57.5183129 9.15595878 60.13255913 9.36621094 62.75512695 C10.20408251 75.76927407 5.50534639 87.13352182 1.125 99.1875 C0.34175525 101.40317194 -0.43874499 103.61981591 -1.21655273 105.83740234 C-2.75280487 110.21081621 -4.30054678 114.57986256 -5.85791016 118.94580078 C-8.48307739 126.33027236 -10.97577291 133.7562368 -13.42803955 141.19961548 C-14.41672422 144.19995721 -15.41428558 147.19734977 -16.41015625 150.1953125 C-16.94036203 151.79678965 -17.47042627 153.39831373 -18 155 C-21.90027603 151.09972397 -22.37159433 144.66684057 -23.6875 139.4375 C-24.02072266 138.18646484 -24.35394531 136.93542969 -24.69726562 135.64648438 C-27.49009134 124.60872619 -27.32576839 116.22857547 -22 106 C-20.79278517 104.39844345 -19.53941045 102.83094993 -18.24926758 101.29541016 C-1.86483588 81.10149512 -0.27903717 63.0806566 -0.77075195 38.10253906 C-0.84120638 33.92141904 -0.84755744 29.74022413 -0.85742188 25.55859375 C-0.8695671 20.87219737 -0.88708646 16.18681146 -0.95796204 11.50088501 C-0.9673732 10.79916168 -0.97678436 10.09743835 -0.98648071 9.37445068 C-1.01313662 7.48253948 -1.04511513 5.5907054 -1.07746887 3.69888306 C-1 1 -1 1 0 0 Z " fill="#DD9C74" transform="translate(281,10)"/>
<path d="M0 0 C0.27674561 0.51385254 0.55349121 1.02770508 0.83862305 1.55712891 C2.11464752 3.9169111 3.40097261 6.2709286 4.6875 8.625 C5.12255859 9.43324219 5.55761719 10.24148438 6.00585938 11.07421875 C11.15275711 20.45301019 16.48077225 25.36842999 25.4375 31.125 C26.36626953 31.73214844 27.29503906 32.33929688 28.25195312 32.96484375 C30.03776905 34.13166156 31.82590436 35.29493977 33.61669922 36.45410156 C36.42833152 38.27783192 39.21731876 40.13249106 42 42 C40.52869627 46.3573226 38.16919385 49.71934134 35.375 53.3125 C34.95476562 53.86228516 34.53453125 54.41207031 34.1015625 54.97851562 C33.07279961 56.32292168 32.0370991 57.66201413 31 59 C27.51018535 58.36408044 25.19570458 56.9764908 22.2890625 54.97265625 C21.38067627 54.35044189 20.47229004 53.72822754 19.53637695 53.0871582 C18.57562256 52.419021 17.61486816 51.75088379 16.625 51.0625 C15.63781982 50.37953857 14.65063965 49.69657715 13.63354492 48.99291992 C11.65709521 47.62346612 9.682372 46.25151683 7.70947266 44.87695312 C5.42815366 43.29659806 3.13342318 41.74221004 0.82421875 40.203125 C-7.30626477 34.71781428 -13.72074528 28.49087202 -20 21 C-20.43779785 20.48131348 -20.8755957 19.96262695 -21.32666016 19.42822266 C-28.61070736 10.77858527 -28.61070736 10.77858527 -30 8 C-26.08370163 6.8529053 -22.16689868 5.70754303 -18.25 4.5625 C-17.13882812 4.23701172 -16.02765625 3.91152344 -14.8828125 3.57617188 C-13.81289063 3.26357422 -12.74296875 2.95097656 -11.640625 2.62890625 C-10.65610352 2.34088135 -9.67158203 2.05285645 -8.65722656 1.75610352 C-2.48563126 0 -2.48563126 0 0 0 Z " fill="#DF9D74" transform="translate(316,320)"/>
<path d="M0 0 C5.98188436 3.40955275 10.81031981 8.88902766 12.8125 15.5 C14.24883064 31.34974157 14.24883064 31.34974157 10.21484375 37.82421875 C6.41560452 42.36425672 1.7479202 47.19710288 -4.1875 48.5 C-7.2089932 48.63827172 -10.15870382 48.59041183 -13.1875 48.5 C-13.1875 45.53 -13.1875 42.56 -13.1875 39.5 C-11.764375 38.9121875 -11.764375 38.9121875 -10.3125 38.3125 C-7.10733658 36.79255378 -7.10733658 36.79255378 -5.8125 34.1875 C-4.84566685 30.03011746 -4.73281392 26.89653581 -6.0625 22.8125 C-9.44293368 19.13379276 -13.39137116 18.68346036 -18.1875 17.5 C-18.1875 20.8 -18.1875 24.1 -18.1875 27.5 C-16.8675 27.5 -15.5475 27.5 -14.1875 27.5 C-14.1875 28.49 -14.1875 29.48 -14.1875 30.5 C-17.1575 30.5 -20.1275 30.5 -23.1875 30.5 C-23.1875 36.44 -23.1875 42.38 -23.1875 48.5 C-25.4975 48.5 -27.8075 48.5 -30.1875 48.5 C-32.93671804 45.75078196 -31.5508986 37.82799045 -31.5925293 33.87475586 C-31.61395342 32.34913277 -31.64786816 30.82362725 -31.69506836 29.29858398 C-31.98337076 19.89335951 -31.8616181 11.88087932 -25.1875 4.5 C-17.83937725 -1.32018894 -8.96468672 -3.9745779 0 0 Z " fill="#DF9D75" transform="translate(206.1875,89.5)"/>
<path d="M0 0 C0 12.54 0 25.08 0 38 C-7.44226739 41.18954317 -12.66334912 42.63647203 -20.3125 39.75 C-26.91013481 35.45386571 -30.47070481 31.58788558 -33 24 C-33.73994408 17.17068006 -33.16019056 11.59713661 -29 6 C-19.85084727 -3.68396751 -12.73628113 -4.77610542 0 0 Z " fill="#D65063" transform="translate(270,13)"/>
<path d="M0 0 C5.26736846 0.9754386 8.84771915 3.63858962 12.375 7.625 C13.70069671 10.61801527 14.19669872 13.36956368 14.375 16.625 C14.61669922 17.80449219 14.61669922 17.80449219 14.86328125 19.0078125 C14.04115769 23.41439481 10.46007857 25.29888311 7 27.875 C6.30132812 28.41640625 5.60265625 28.9578125 4.8828125 29.515625 C-0.15178571 33.38839286 -0.15178571 33.38839286 -2.625 34.625 C-3.28055119 37.15233235 -3.28055119 37.15233235 -3.625 39.625 C-2.5525 39.295 -1.48 38.965 -0.375 38.625 C3.375 37.625 3.375 37.625 7.375 37.625 C7.375 35.975 7.375 34.325 7.375 32.625 C10.675 32.295 13.975 31.965 17.375 31.625 C19.375 40.125 19.375 40.125 19.375 44.625 C15.3147655 45.63435416 11.25147836 46.6308367 7.1875 47.625 C6.03701172 47.91117188 4.88652344 48.19734375 3.70117188 48.4921875 C2.58935547 48.76289063 1.47753906 49.03359375 0.33203125 49.3125 C-0.68914795 49.56386719 -1.71032715 49.81523437 -2.76245117 50.07421875 C-5.46806968 50.59480513 -7.87915588 50.73086387 -10.625 50.625 C-11.29949966 48.23112843 -11.96476641 45.83530779 -12.625 43.4375 C-12.81578125 42.76396484 -13.0065625 42.09042969 -13.203125 41.39648438 C-15.30520358 33.70137529 -15.30520358 33.70137529 -14.625 30.625 C-12.56193043 28.66329512 -10.6815321 27.11506638 -8.375 25.5 C-7.78847656 25.07074219 -7.20195312 24.64148438 -6.59765625 24.19921875 C-4.94918509 22.99527914 -3.28743405 21.80958465 -1.625 20.625 C-0.28856912 19.62914344 1.04641716 18.63130284 2.375 17.625 C2.045 15.975 1.715 14.325 1.375 12.625 C-1.49502036 11.80499418 -3.32193028 11.55284054 -6.25 12.25 C-9.14864851 13.92816493 -10.14492284 15.66484568 -11.625 18.625 C-15.49348614 17.50743734 -17.91422757 16.59626708 -20.625 13.625 C-16.63640206 4.65486202 -16.63640206 4.65486202 -12.0234375 2.29296875 C-8.05356587 1.18293577 -4.05537303 0.69920225 0 0 Z " fill="#52252F" transform="translate(208.625,194.375)"/>
<path d="M0 0 C0.77859375 0.49886719 1.5571875 0.99773437 2.359375 1.51171875 C3.17019531 2.00929688 3.98101562 2.506875 4.81640625 3.01953125 C5.59371094 3.55320312 6.37101562 4.086875 7.171875 4.63671875 C7.96207031 5.17554688 8.75226563 5.714375 9.56640625 6.26953125 C10.15808594 6.67945313 10.74976563 7.089375 11.359375 7.51171875 C10.48785885 8.55630194 9.61190533 9.59718282 8.734375 10.63671875 C8.19296875 11.28382813 7.6515625 11.9309375 7.09375 12.59765625 C5.49009893 14.36745135 3.8302444 15.75865367 1.984375 17.26171875 C-0.67006482 19.90226097 -1.06452989 21.79392909 -1.140625 25.51171875 C-0.99782846 27.51356463 -0.82959249 29.51370247 -0.640625 31.51171875 C-0.63482422 33.09146484 -0.63482422 33.09146484 -0.62890625 34.703125 C-0.04414915 45.91746663 6.04128501 53.12326684 12.85717773 61.62744141 C13.35290283 62.24925293 13.84862793 62.87106445 14.359375 63.51171875 C14.93824463 64.18895996 15.51711426 64.86620117 16.11352539 65.56396484 C16.52465576 66.20672363 16.93578613 66.84948242 17.359375 67.51171875 C16.359375 70.51171875 16.359375 70.51171875 14.734375 71.76171875 C11.31369544 72.84193335 8.8169645 72.32896718 5.359375 71.51171875 C2.34107308 69.19960857 1.37843378 66.48203519 0.08203125 62.97265625 C-0.34360107 61.84569336 -0.7692334 60.71873047 -1.20776367 59.55761719 C-1.65998291 58.3462207 -2.11220215 57.13482422 -2.578125 55.88671875 C-7.83999839 42.03077729 -14.00051069 28.76746447 -20.640625 15.51171875 C-17.45482007 11.18188411 -13.86114441 7.91728389 -9.703125 4.57421875 C-9.09533203 4.05537109 -8.48753906 3.53652344 -7.86132812 3.00195312 C-3.35425167 -0.62023884 -3.35425167 -0.62023884 0 0 Z " fill="#EE7784" transform="translate(336.640625,429.48828125)"/>
<path d="M0 0 C4.23429756 1.31061591 8.07407404 2.94356259 12 5 C9.27274625 9.73680915 9.27274625 9.73680915 7.56445312 11.38525391 C5.79335124 13.2263296 4.82873607 14.56817011 4 17 C4.84513188 21.42268875 6.741693 25.27343976 8.6875 29.3125 C9.67248766 31.47438905 10.65565757 33.63710754 11.63671875 35.80078125 C12.08748779 36.75122314 12.53825684 37.70166504 13.00268555 38.6809082 C14 41 14 41 14 43 C14.58426758 43.27183105 15.16853516 43.54366211 15.77050781 43.82373047 C17.97050163 44.9844368 19.74254179 46.25688731 21.671875 47.8203125 C22.33574219 48.35527344 22.99960937 48.89023437 23.68359375 49.44140625 C24.36550781 49.99699219 25.04742187 50.55257812 25.75 51.125 C26.44738281 51.68832031 27.14476562 52.25164062 27.86328125 52.83203125 C29.57821965 54.21807736 31.290324 55.60747208 33 57 C32.2578125 62.765625 32.2578125 62.765625 29.9375 64.875 C26.27989377 66.27578537 22.8321479 67.10319409 19 66 C14.10360797 62.13200379 12.23710886 57.57267794 9.875 52 C5.80799569 42.91410238 0.72146696 36.24304492 -6 29 C-7.60416047 27.16382254 -9.18963039 25.3110328 -10.75 23.4375 C-11.40484375 22.67308594 -12.0596875 21.90867187 -12.734375 21.12109375 C-14 19 -14 19 -13.74707031 17.08105469 C-12.91732239 14.76969151 -11.92867892 13.4222376 -10.3125 11.58203125 C-9.77882813 10.96779297 -9.24515625 10.35355469 -8.6953125 9.72070312 C-7.85613281 8.77614258 -7.85613281 8.77614258 -7 7.8125 C-6.16082031 6.85053711 -6.16082031 6.85053711 -5.3046875 5.86914062 C-1.37723214 1.37723214 -1.37723214 1.37723214 0 0 Z " fill="#EE7784" transform="translate(393,386)"/>
<path d="M0 0 C2.31619643 5.92533812 3.68091867 11.76659327 2 18 C2.66 18.33 3.32 18.66 4 19 C4.8515625 21.546875 4.8515625 21.546875 5.625 24.75 C6.01558594 26.32007813 6.01558594 26.32007813 6.4140625 27.921875 C7.10176017 31.53458011 7.65608713 34.46913003 6.1796875 37.9140625 C1.92938056 43.48781831 -2.94656025 44.37250333 -9.66015625 45.58984375 C-17.26367461 46.52360916 -17.26367461 46.52360916 -20.8125 44 C-21.534375 43.34 -22.25625 42.68 -23 42 C-21.87548273 39.0280615 -20.77706209 36.66559313 -19 34 C-18.01 34.20625 -17.02 34.4125 -16 34.625 C-11.62162112 35.27862302 -8.20652588 34.25457789 -4 33 C-4.33 31.02 -4.66 29.04 -5 27 C-7.97 27 -10.94 27 -14 27 C-16.42857143 19.57142857 -16.42857143 19.57142857 -15 16 C-11.535 15.505 -11.535 15.505 -8 15 C-8.33 12.69 -8.66 10.38 -9 8 C-10.79258558 8.08693141 -12.58415144 8.19510504 -14.375 8.3125 C-15.87160156 8.39951172 -15.87160156 8.39951172 -17.3984375 8.48828125 C-18.25695312 8.65714844 -19.11546875 8.82601562 -20 9 C-20.99 10.485 -20.99 10.485 -22 12 C-25.77545388 10.90931332 -28.47043472 10.0916909 -31 7 C-29.89093569 3.90629429 -29.25995501 2.30085917 -27 0 C-18.64533309 -3.24779277 -7.68618144 -5.46901372 0 0 Z " fill="#52252F" transform="translate(252,191)"/>
<path d="M0 0 C0.99 0 1.98 0 3 0 C4.10728716 6.39682784 3.85433682 11.30594322 2 17.5 C1.77795898 18.29172607 1.55591797 19.08345215 1.32714844 19.89916992 C0.8365003 21.64230591 0.33842986 23.38336526 -0.16601562 25.12255859 C-1.40473691 29.39643713 -2.60642235 33.68056215 -3.80859375 37.96484375 C-4.42597729 40.16026987 -5.04820782 42.35433997 -5.67578125 44.546875 C-7.03892994 49.34540291 -8.35128531 54.04074691 -9 59 C-10.33895632 57.33784732 -11.67130142 55.67036393 -13 54 C-13.81561401 53.06426147 -13.81561401 53.06426147 -14.64770508 52.10961914 C-16.29328082 49.54247346 -16.23987706 48.47834122 -15.82421875 45.49609375 C-15.64511963 44.17714111 -15.64511963 44.17714111 -15.46240234 42.83154297 C-15.30980957 41.89713379 -15.1572168 40.96272461 -15 40 C-14.84611816 39.04883301 -14.69223633 38.09766602 -14.53369141 37.11767578 C-10.4978882 13.90318383 -10.4978882 13.90318383 -4 5 C-3.278125 3.948125 -2.55625 2.89625 -1.8125 1.8125 C-1.214375 1.214375 -0.61625 0.61625 0 0 Z " fill="#C0764D" transform="translate(163,183)"/>
<path d="M0 0 C0.99 0 1.98 0 3 0 C2.33192773 5.06246995 0.90288513 9.60085229 -0.7734375 14.39453125 C-1.0533252 15.20770813 -1.33321289 16.02088501 -1.62158203 16.85870361 C-2.22313305 18.60507935 -2.82677513 20.35073596 -3.43231201 22.09573364 C-5.02674997 26.69080163 -6.6061505 31.29103996 -8.1875 35.890625 C-8.50737885 36.81968155 -8.82725769 37.7487381 -9.15682983 38.70594788 C-12.28641793 47.80594063 -15.34189278 56.92996725 -18.375 66.0625 C-18.61337585 66.77967194 -18.85175171 67.49684387 -19.09735107 68.23574829 C-20.40037751 72.15645669 -21.70133675 76.07784375 -23 80 C-25.5068162 77.4931838 -25.82279354 75.60836312 -26.6875 72.1875 C-26.95949219 71.14980469 -27.23148437 70.11210937 -27.51171875 69.04296875 C-28.50166979 62.87359384 -25.86370524 57.9819434 -23.4375 52.4375 C-23.05907959 51.56359619 -22.68065918 50.68969238 -22.29077148 49.78930664 C-18.09889216 40.1498415 -13.82739257 30.54482344 -9.5625 20.9375 C-9.20421112 20.1302951 -8.84592224 19.32309021 -8.47677612 18.49142456 C-7.44540509 16.16950475 -6.41248708 13.84828062 -5.37890625 11.52734375 C-5.06776886 10.82710083 -4.75663147 10.12685791 -4.43606567 9.40539551 C-3.02207741 6.23527067 -1.59129394 3.08556377 0 0 Z " fill="#C0764D" transform="translate(286,85)"/>
<path d="M0 0 C5.29012124 4.40843437 10.18808428 9.07559794 15 14 C13.7622343 17.7132971 12.25608211 18.62780182 9.1875 21 C8.31480469 21.680625 7.44210937 22.36125 6.54296875 23.0625 C5.70378906 23.701875 4.86460937 24.34125 4 25 C3.33613281 25.61875 2.67226563 26.2375 1.98828125 26.875 C0 28 0 28 -2.32421875 27.6015625 C-6.05062567 25.37115836 -8.82072308 22.49685417 -11.8125 19.375 C-12.40998047 18.76398438 -13.00746094 18.15296875 -13.62304688 17.5234375 C-15.08895106 16.02235161 -16.54542993 14.51207138 -18 13 C-14.19057031 9.8721067 -10.25049036 7.03113275 -6.1875 4.25 C-5.59001953 3.83878906 -4.99253906 3.42757813 -4.37695312 3.00390625 C-2.91912546 2.00092082 -1.45972526 1.0002217 0 0 Z " fill="#D2BBC8" transform="translate(311,407)"/>
<path d="M0 0 C1.86405777 1.31392038 3.6819243 2.66321752 5.48046875 4.06640625 C7.28789536 5.45350109 9.15322274 6.76635417 11.05078125 8.02734375 C18.65108467 13.67687043 18.65108467 13.67687043 19.30566406 18.03515625 C19.26723732 23.16173583 18.18775782 28.03255524 17 33 C16.6629278 34.66591453 16.32766036 36.33220877 16 38 C16.53778076 37.83395264 17.07556152 37.66790527 17.62963867 37.49682617 C28.01945095 34.30106934 38.34965996 31.21558169 49 29 C49 29.66 49 30.32 49 31 C18.78804861 40.6868806 18.78804861 40.6868806 9 40 C6.50379706 31.70256566 4.28799037 23.35782979 2.25 14.9375 C2.02739502 14.03362549 1.80479004 13.12975098 1.57543945 12.19848633 C1.2673938 10.90720825 1.2673938 10.90720825 0.953125 9.58984375 C0.76911133 8.82534912 0.58509766 8.06085449 0.39550781 7.27319336 C-0.03319986 4.80918281 -0.06718842 2.49615977 0 0 Z " fill="#E8D9E1" transform="translate(202,296)"/>
<path d="M0 0 C0.33 0 0.66 0 1 0 C1.79804665 18.26640108 1.79804665 18.26640108 -3 24 C-7.37024744 28.57096862 -11.73163834 32.8046682 -18.3046875 33.10546875 C-20.53666753 33.12285177 -22.76894607 33.06659862 -25 33 C-25 30.03 -25 27.06 -25 24 C-24.05125 23.608125 -23.1025 23.21625 -22.125 22.8125 C-18.91983658 21.29255378 -18.91983658 21.29255378 -17.625 18.6875 C-16.64335975 14.46644692 -16.62816959 11.11549123 -18 7 C-12.06 7 -6.12 7 0 7 C0 4.69 0 2.38 0 0 Z " fill="#BF764D" transform="translate(218,105)"/>
<path d="M0 0 C4.43170173 1.51896368 8.03024076 3.92639809 11.8125 6.625 C12.40998047 7.04523438 13.00746094 7.46546875 13.62304688 7.8984375 C15.08520565 8.92779728 16.54304899 9.9632823 18 11 C13.93866463 16.59363406 9.6208599 21.85963514 5 27 C1.33601701 25.31029911 -1.90832572 23.12699789 -5.25 20.875 C-6.32765625 20.15054687 -7.4053125 19.42609375 -8.515625 18.6796875 C-9.33546875 18.12539063 -10.1553125 17.57109375 -11 17 C-9.52869627 12.6426774 -7.16919385 9.28065866 -4.375 5.6875 C-3.95476562 5.13771484 -3.53453125 4.58792969 -3.1015625 4.02148438 C-2.07279961 2.67707832 -1.0370991 1.33798587 0 0 Z " fill="#D2BBC7" transform="translate(366,369)"/>
<path d="M0 0 C4 6.75 4 6.75 4 9 C-0.21609339 10.45785559 -4.44897493 11.85884831 -8.6875 13.25 C-9.88568359 13.66507812 -11.08386719 14.08015625 -12.31835938 14.5078125 C-13.47529297 14.88164062 -14.63222656 15.25546875 -15.82421875 15.640625 C-17.41882935 16.17478027 -17.41882935 16.17478027 -19.0456543 16.71972656 C-22 17 -22 17 -24.69848633 15.39746094 C-26.94063267 13.06184228 -28.49302237 10.85532604 -30 8 C-26.08370163 6.8529053 -22.16689868 5.70754303 -18.25 4.5625 C-17.13882812 4.23701172 -16.02765625 3.91152344 -14.8828125 3.57617188 C-13.81289063 3.26357422 -12.74296875 2.95097656 -11.640625 2.62890625 C-10.65610352 2.34088135 -9.67158203 2.05285645 -8.65722656 1.75610352 C-2.48563126 0 -2.48563126 0 0 0 Z " fill="#BE754C" transform="translate(316,320)"/>
<path d="M0 0 C1.32 3.3 2.64 6.6 4 10 C3.11699219 10.18175781 2.23398437 10.36351562 1.32421875 10.55078125 C-5.48418542 11.9768165 -12.2061508 13.52100504 -18.890625 15.44921875 C-21 16 -21 16 -23 16 C-23.33 16.66 -23.66 17.32 -24 18 C-24.50615298 16.73160474 -25.00469099 15.46016898 -25.5 14.1875 C-25.7784375 13.47980469 -26.056875 12.77210938 -26.34375 12.04296875 C-27 10 -27 10 -27 7 C-23.06442471 5.82677153 -19.12624273 4.66254629 -15.1875 3.5 C-14.06794922 3.16613281 -12.94839844 2.83226562 -11.79492188 2.48828125 C-10.18520508 2.01455078 -10.18520508 2.01455078 -8.54296875 1.53125 C-7.0583313 1.09135742 -7.0583313 1.09135742 -5.54370117 0.64257812 C-3 0 -3 0 0 0 Z " fill="#BF754D" transform="translate(255,337)"/>
<path d="M0 0 C0.07476562 0.70382812 0.14953125 1.40765625 0.2265625 2.1328125 C1.05729514 8.37145173 2.50106235 13.38261741 5.25 19.0625 C8.29567099 25.6761672 8.3181817 30.1571745 6 37 C4.27105093 35.37275381 2.62608608 33.72745249 1 32 C0.47277344 31.44183594 -0.05445313 30.88367188 -0.59765625 30.30859375 C-6.39587663 23.48464397 -7.68959122 14.80741072 -7 6 C-5.72265625 4.1015625 -5.72265625 4.1015625 -4.0625 2.625 C-3.51722656 2.12226563 -2.97195313 1.61953125 -2.41015625 1.1015625 C-1 0 -1 0 0 0 Z " fill="#D04D60" transform="translate(352,448)"/>
<path d="M0 0 C1.79041248 3.23831126 2.73750239 6.41415108 3.625 10 C4.01558594 11.546875 4.01558594 11.546875 4.4140625 13.125 C5 16 5 16 5 20 C2.14732627 20.81806834 -0.70695185 21.62957796 -3.5625 22.4375 C-4.36236328 22.66759766 -5.16222656 22.89769531 -5.98632812 23.13476562 C-10.65697671 24.45017278 -15.17927153 25.43704245 -20 26 C-15.07434862 19.96607706 -9.65184499 14.97913671 -3.625 10.0625 C-1.17954353 6.9586514 -0.77099845 3.85499225 0 0 Z " fill="#D44F63" transform="translate(265,220)"/>
<path d="M0 0 C1.32 0.99 2.64 1.98 4 3 C3.30521013 7.09953268 1.47906977 8.52612296 -1.86914062 10.95507812 C-2.51044922 11.40302734 -3.15175781 11.85097656 -3.8125 12.3125 C-4.44220703 12.77978516 -5.07191406 13.24707031 -5.72070312 13.72851562 C-10.38102918 17.03915649 -10.38102918 17.03915649 -13.02612305 16.87182617 C-15 16 -15 16 -18 12 C-12.06 8.04 -6.12 4.08 0 0 Z " fill="#E7D9E0" transform="translate(311,407)"/>
<path d="M0 0 C1.7265625 2.5546875 1.7265625 2.5546875 3.625 5.875 C4.57246094 7.51082031 4.57246094 7.51082031 5.5390625 9.1796875 C7 12 7 12 7 14 C4.41195571 13.06542845 2.28450071 12.22790449 0.12597656 10.4987793 C-2.23947882 8.83117128 -3.93612085 8.35802882 -6.765625 7.83203125 C-7.65507812 7.66123047 -8.54453125 7.49042969 -9.4609375 7.31445312 C-10.38132812 7.14880859 -11.30171875 6.98316406 -12.25 6.8125 C-13.18585938 6.63525391 -14.12171875 6.45800781 -15.0859375 6.27539062 C-17.38900521 5.84062784 -19.69346019 5.41587612 -22 5 C-22 4.67 -22 4.34 -22 4 C-18.70896017 3.33021327 -15.4170703 2.66470178 -12.125 2 C-11.18785156 1.80921875 -10.25070312 1.6184375 -9.28515625 1.421875 C-8.38925781 1.24140625 -7.49335938 1.0609375 -6.5703125 0.875 C-5.32918701 0.62363281 -5.32918701 0.62363281 -4.06298828 0.3671875 C-2 0 -2 0 0 0 Z " fill="#D34F62" transform="translate(275,250)"/>
<path d="M0 0 C2.91517292 1.07401108 4.77810176 1.77810176 7 4 C5.09703324 6.3457955 3.17921989 8.67596301 1.25 11 C0.71117187 11.66773438 0.17234375 12.33546875 -0.3828125 13.0234375 C-0.91132813 13.65507812 -1.43984375 14.28671875 -1.984375 14.9375 C-2.70705566 15.81728516 -2.70705566 15.81728516 -3.44433594 16.71484375 C-5 18 -5 18 -9 18 C-9 13.1193006 -7.12982936 10.63551365 -4.5 6.75 C-4.07074219 6.1003125 -3.64148438 5.450625 -3.19921875 4.78125 C-2.14094848 3.18208604 -1.07154069 1.59030246 0 0 Z " fill="#E6D8E0" transform="translate(377,377)"/>
<path d="M0 0 C1.32 0.66 2.64 1.32 4 2 C3.34 6.29 2.68 10.58 2 15 C-6.625 14.25 -6.625 14.25 -10 12 C-8.52278578 8.54798361 -6.56205999 6.35038064 -3.875 3.75 C-3.15054688 3.04359375 -2.42609375 2.3371875 -1.6796875 1.609375 C-1.12539062 1.07828125 -0.57109375 0.5471875 0 0 Z " fill="#ED7582" transform="translate(257,39)"/>
<path d="M0 0 C-2.97755214 2.97755214 -6.73224176 3.49705837 -10.69921875 4.56640625 C-11.56762894 4.80536118 -12.43603912 5.0443161 -13.33076477 5.29051208 C-15.1716949 5.79545286 -17.01353729 6.29707756 -18.85620117 6.7956543 C-21.66103667 7.55533251 -24.46248811 8.32658826 -27.26367188 9.09960938 C-29.05449706 9.58923874 -30.8455071 10.07819259 -32.63671875 10.56640625 C-33.46926682 10.79558243 -34.30181488 11.02475861 -35.15959167 11.26087952 C-39.768324 12.50151554 -44.25966588 13.43420922 -49 14 C-49 13.34 -49 12.68 -49 12 C-36.22575998 7.86883743 -23.32372874 4.24282622 -10.3815918 0.67675781 C-6.29745316 -0.48379906 -4.17822225 -1.01632433 0 0 Z " fill="#E7D0D8" transform="translate(310,310)"/>
<path d="M0 0 C2.83413487 3.77884649 4.98985326 7.47609728 7.1875 11.625 C7.55552734 12.305625 7.92355469 12.98625 8.30273438 13.6875 C11 18.75175383 11 18.75175383 11 21 C8.03 21.66 5.06 22.32 2 23 C1.34 15.41 0.68 7.82 0 0 Z " fill="#D55165" transform="translate(259,299)"/>
<path d="M0 0 C1.32 0.66 2.64 1.32 4 2 C2.7622343 5.7132971 1.25608211 6.62780182 -1.8125 9 C-2.68519531 9.680625 -3.55789063 10.36125 -4.45703125 11.0625 C-5.71580078 12.0215625 -5.71580078 12.0215625 -7 13 C-7.71027344 13.59425781 -8.42054688 14.18851562 -9.15234375 14.80078125 C-9.76207031 15.19652344 -10.37179687 15.59226562 -11 16 C-13.75 15.1875 -13.75 15.1875 -16 14 C-14.59696759 9.79090278 -11.51861073 8.27846048 -8 5.875 C-3.81251241 3.16024767 -3.81251241 3.16024767 0 0 Z " fill="#E7D9E0" transform="translate(322,419)"/>
<path d="M0 0 C0.99 0.33 1.98 0.66 3 1 C1.47146065 5.27186525 -0.71509481 8.99326863 -3.125 12.8125 C-3.49753906 13.40998047 -3.87007813 14.00746094 -4.25390625 14.62304688 C-5.1657048 16.08426251 -6.08235976 17.54244585 -7 19 C-8.32 18.34 -9.64 17.68 -11 17 C-9.52869627 12.6426774 -7.16919385 9.28065866 -4.375 5.6875 C-3.95476562 5.13771484 -3.53453125 4.58792969 -3.1015625 4.02148438 C-2.07279961 2.67707832 -1.0370991 1.33798587 0 0 Z " fill="#E3D5DC" transform="translate(366,369)"/>
<path d="M0 0 C-1.46966358 3.39859703 -3.38037514 5.64963709 -6 8.25 C-6.70125 8.95640625 -7.4025 9.6628125 -8.125 10.390625 C-10 12 -10 12 -12 12 C-13.61989062 8.45648927 -14.10414268 5.87280581 -14 2 C-12.4176994 1.66179834 -10.83410625 1.32964061 -9.25 1 C-8.36828125 0.814375 -7.4865625 0.62875 -6.578125 0.4375 C-4 0 -4 0 0 0 Z " fill="#EE7683" transform="translate(251,30)"/>
<path d="M0 0 C0.66 0 1.32 0 2 0 C2.30292969 1.14597656 2.60585938 2.29195313 2.91796875 3.47265625 C3.34040363 5.00280926 3.76362273 6.53274592 4.1875 8.0625 C4.38408203 8.81466797 4.58066406 9.56683594 4.78320312 10.34179688 C6.31471122 15.78454104 8.49262489 19.56125469 12 24 C11.67 24.66 11.34 25.32 11 26 C5.81487624 22.24170462 3.47241902 18.81942763 1.0625 12.9375 C0.74732422 12.23044922 0.43214844 11.52339844 0.10742188 10.79492188 C-1.4664659 7.09472214 -2.33440154 4.82270092 -1 1 C-0.67 0.67 -0.34 0.34 0 0 Z " fill="#CB4B5E" transform="translate(410,401)"/>
<path d="M0 0 C3.3125 -0.1875 3.3125 -0.1875 7 0 C7.99 0.99 8.98 1.98 10 3 C6.7 6.3 3.4 9.6 0 13 C-0.66 12.67 -1.32 12.34 -2 12 C-1.34 8.04 -0.68 4.08 0 0 Z " fill="#F07784" transform="translate(259,11)"/>
<path d="M0 0 C0 0.66 0 1.32 0 2 C-22.23349592 9.22089149 -22.23349592 9.22089149 -29 10 C-29.66 9.34 -30.32 8.68 -31 8 C-30.33468262 7.82871582 -29.66936523 7.65743164 -28.98388672 7.48095703 C-25.94702529 6.69781376 -22.91101022 5.91143638 -19.875 5.125 C-18.82828125 4.85558594 -17.7815625 4.58617187 -16.703125 4.30859375 C-0.09927591 0 -0.09927591 0 0 0 Z " fill="#E6CBD3" transform="translate(251,325)"/>
<path d="M0 0 C0 0.66 0 1.32 0 2 C-3.50776784 3.60355101 -6.14354879 4.22036864 -10 4 C-10 3.34 -10 2.68 -10 2 C-3.375 0 -3.375 0 0 0 Z " fill="#C7AAB6" transform="translate(271,320)"/>
<path d="M0 0 C0.33 0 0.66 0 1 0 C1 2.31 1 4.62 1 7 C-0.32 6.67 -1.64 6.34 -3 6 C-2.42655063 3.13275314 -2.1385485 2.1385485 0 0 Z " fill="#EB7381" transform="translate(269,27)"/>
</svg>
